/* XPM */
static char * application_icon_32_xpm[] = {
"32 32 2 1",
" 	g None",
".	g #000000",
"                                ",
"                     ...        ",
"                   ... .        ",
"................................",
"             ....      .        ",
"          ....         .        ",
"          .            .        ",
"................................",
"          .            .        ",
"          .            .        ",
"          .            .        ",
"................................",
"          .            .        ",
"          .       .... .        ",
"          .      .......        ",
"................................",
"     .... .       .....         ",
"    .......        ...          ",
"    .......                     ",
"................................",
"      ...                       ",
"                                ",
"                                ",
"                                ",
"      .        .                ",
"      .           .   ..        ",
"      . . . .. . . . .          ",
"      . . . .  . .   ..         ",
"      .  .  .  . .     .        ",
"      .  .  .  .  .. ...        ",
"        .                       ",
"                                "};
